<?xml version="1.0" encoding="UTF-8" standalone="no"?>
<!DOCTYPE svg PUBLIC "-//W3C//DTD SVG 1.1//EN"
 "http://www.w3.org/Graphics/SVG/1.1/DTD/svg11.dtd">
<!-- Generated by graphviz version 2.43.0 (0)
 -->
<!-- Title: graph_title Pages: 1 -->
<svg width="3902pt" height="541pt"
 viewBox="0.00 0.00 3902.00 541.00" xmlns="http://www.w3.org/2000/svg" xmlns:xlink="http://www.w3.org/1999/xlink">
<g id="graph0" class="graph" transform="scale(1 1) rotate(0) translate(4 537)">
<title>graph_title</title>
<polygon fill="white" stroke="transparent" points="-4,4 -4,-537 3898,-537 3898,4 -4,4"/>
<!-- AdminController -->
<g id="node1" class="node">
<title>AdminController</title>
<path fill="none" stroke="black" d="M12,-252.5C12,-252.5 230,-252.5 230,-252.5 236,-252.5 242,-258.5 242,-264.5 242,-264.5 242,-520.5 242,-520.5 242,-526.5 236,-532.5 230,-532.5 230,-532.5 12,-532.5 12,-532.5 6,-532.5 0,-526.5 0,-520.5 0,-520.5 0,-264.5 0,-264.5 0,-258.5 6,-252.5 12,-252.5"/>
<text text-anchor="middle" x="121" y="-517.3" font-family="Times,serif" font-size="14.00">AdminController</text>
<polyline fill="none" stroke="black" points="0,-509.5 242,-509.5 "/>
<polyline fill="none" stroke="black" points="0,-485.5 242,-485.5 "/>
<text text-anchor="start" x="8" y="-470.3" font-family="Times,serif" font-size="14.00">I + users()</text>
<text text-anchor="start" x="8" y="-455.3" font-family="Times,serif" font-size="14.00">I + set_admin()</text>
<text text-anchor="start" x="8" y="-440.3" font-family="Times,serif" font-size="14.00">I + edit_teacher()</text>
<text text-anchor="start" x="8" y="-425.3" font-family="Times,serif" font-size="14.00">I + edit()</text>
<text text-anchor="start" x="8" y="-410.3" font-family="Times,serif" font-size="14.00">I + add_teacher()</text>
<text text-anchor="start" x="8" y="-395.3" font-family="Times,serif" font-size="14.00">I + create_teacher()</text>
<text text-anchor="start" x="8" y="-380.3" font-family="Times,serif" font-size="14.00">I + update_teacher()</text>
<text text-anchor="start" x="8" y="-365.3" font-family="Times,serif" font-size="14.00">I + list_teachers()</text>
<text text-anchor="start" x="8" y="-350.3" font-family="Times,serif" font-size="14.00">I + add_users()</text>
<text text-anchor="start" x="8" y="-335.3" font-family="Times,serif" font-size="14.00">I + create_users()</text>
<text text-anchor="start" x="8" y="-320.3" font-family="Times,serif" font-size="14.00">I + clean_users_without_confirmation()</text>
<text text-anchor="start" x="8" y="-305.3" font-family="Times,serif" font-size="14.00">I &#45; check_admin()</text>
<text text-anchor="start" x="8" y="-290.3" font-family="Times,serif" font-size="14.00">I &#45; get_user_id()</text>
<text text-anchor="start" x="8" y="-275.3" font-family="Times,serif" font-size="14.00">I &#45; get_user_params()</text>
<text text-anchor="start" x="8" y="-260.3" font-family="Times,serif" font-size="14.00">I &#45; teacher_params()</text>
</g>
<!-- ApplicationController -->
<g id="node2" class="node">
<title>ApplicationController</title>
<path fill="none" stroke="black" d="M400.5,-85.5C400.5,-85.5 663.5,-85.5 663.5,-85.5 669.5,-85.5 675.5,-91.5 675.5,-97.5 675.5,-97.5 675.5,-188.5 675.5,-188.5 675.5,-194.5 669.5,-200.5 663.5,-200.5 663.5,-200.5 400.5,-200.5 400.5,-200.5 394.5,-200.5 388.5,-194.5 388.5,-188.5 388.5,-188.5 388.5,-97.5 388.5,-97.5 388.5,-91.5 394.5,-85.5 400.5,-85.5"/>
<text text-anchor="middle" x="532" y="-185.3" font-family="Times,serif" font-size="14.00">ApplicationController</text>
<polyline fill="none" stroke="black" points="388.5,-177.5 675.5,-177.5 "/>
<polyline fill="none" stroke="black" points="388.5,-153.5 675.5,-153.5 "/>
<text text-anchor="start" x="396.5" y="-138.3" font-family="Times,serif" font-size="14.00">I + after_sign_in_path_for(resource)</text>
<text text-anchor="start" x="396.5" y="-123.3" font-family="Times,serif" font-size="14.00">I + after_sign_out_path_for(resource_or_scope)</text>
<text text-anchor="start" x="396.5" y="-108.3" font-family="Times,serif" font-size="14.00">I + set_cookie()</text>
<text text-anchor="start" x="396.5" y="-93.3" font-family="Times,serif" font-size="14.00">I + check_session()</text>
</g>
<!-- AdminController&#45;&gt;ApplicationController -->
<g id="edge1" class="edge">
<title>AdminController&#45;&gt;ApplicationController</title>
<path fill="none" stroke="black" d="M242.01,-258.35C244.98,-256.16 247.98,-254.04 251,-252 289.64,-225.92 335.47,-204.9 378.79,-188.58"/>
<polygon fill="none" stroke="black" points="380.12,-191.82 388.28,-185.06 377.69,-185.25 380.12,-191.82"/>
</g>
<!-- ActionController::Base -->
<g id="node24" class="node">
<title>ActionController::Base</title>
<path fill="none" stroke="black" d="M470.5,-0.5C470.5,-0.5 593.5,-0.5 593.5,-0.5 599.5,-0.5 605.5,-6.5 605.5,-12.5 605.5,-12.5 605.5,-35.5 605.5,-35.5 605.5,-41.5 599.5,-47.5 593.5,-47.5 593.5,-47.5 470.5,-47.5 470.5,-47.5 464.5,-47.5 458.5,-41.5 458.5,-35.5 458.5,-35.5 458.5,-12.5 458.5,-12.5 458.5,-6.5 464.5,-0.5 470.5,-0.5"/>
<text text-anchor="middle" x="532" y="-32.3" font-family="Times,serif" font-size="14.00">ActionController::Base</text>
<polyline fill="none" stroke="black" points="458.5,-24.5 605.5,-24.5 "/>
</g>
<!-- ApplicationController&#45;&gt;ActionController::Base -->
<g id="edge2" class="edge">
<title>ApplicationController&#45;&gt;ActionController::Base</title>
<path fill="none" stroke="black" d="M532,-85.21C532,-75.88 532,-66.49 532,-57.99"/>
<polygon fill="none" stroke="black" points="535.5,-57.77 532,-47.77 528.5,-57.77 535.5,-57.77"/>
</g>
<!-- HomepageController -->
<g id="node3" class="node">
<title>HomepageController</title>
<path fill="none" stroke="black" d="M272,-290C272,-290 384,-290 384,-290 390,-290 396,-296 396,-302 396,-302 396,-483 396,-483 396,-489 390,-495 384,-495 384,-495 272,-495 272,-495 266,-495 260,-489 260,-483 260,-483 260,-302 260,-302 260,-296 266,-290 272,-290"/>
<text text-anchor="middle" x="328" y="-479.8" font-family="Times,serif" font-size="14.00">HomepageController</text>
<polyline fill="none" stroke="black" points="260,-472 396,-472 "/>
<polyline fill="none" stroke="black" points="260,-448 396,-448 "/>
<text text-anchor="start" x="268" y="-432.8" font-family="Times,serif" font-size="14.00">I + home()</text>
<text text-anchor="start" x="268" y="-417.8" font-family="Times,serif" font-size="14.00">I + museum()</text>
<text text-anchor="start" x="268" y="-402.8" font-family="Times,serif" font-size="14.00">I + search()</text>
<text text-anchor="start" x="268" y="-387.8" font-family="Times,serif" font-size="14.00">I + get_image()</text>
<text text-anchor="start" x="268" y="-372.8" font-family="Times,serif" font-size="14.00">I + materials()</text>
<text text-anchor="start" x="268" y="-357.8" font-family="Times,serif" font-size="14.00">I + teachers()</text>
<text text-anchor="start" x="268" y="-342.8" font-family="Times,serif" font-size="14.00">I + history()</text>
<text text-anchor="start" x="268" y="-327.8" font-family="Times,serif" font-size="14.00">I + profile_list()</text>
<text text-anchor="start" x="268" y="-312.8" font-family="Times,serif" font-size="14.00">I + exit_profile_list()</text>
<text text-anchor="start" x="268" y="-297.8" font-family="Times,serif" font-size="14.00">I &#45; check_path(path)</text>
</g>
<!-- HomepageController&#45;&gt;ApplicationController -->
<g id="edge3" class="edge">
<title>HomepageController&#45;&gt;ApplicationController</title>
<path fill="none" stroke="black" d="M378.28,-289.97C386.49,-276.7 395.46,-263.67 405,-252 417.83,-236.3 433.14,-221.11 448.62,-207.32"/>
<polygon fill="none" stroke="black" points="451.01,-209.89 456.23,-200.67 446.4,-204.62 451.01,-209.89"/>
</g>
<!-- ProfileController -->
<g id="node4" class="node">
<title>ProfileController</title>
<path fill="none" stroke="black" d="M426.5,-267.5C426.5,-267.5 637.5,-267.5 637.5,-267.5 643.5,-267.5 649.5,-273.5 649.5,-279.5 649.5,-279.5 649.5,-505.5 649.5,-505.5 649.5,-511.5 643.5,-517.5 637.5,-517.5 637.5,-517.5 426.5,-517.5 426.5,-517.5 420.5,-517.5 414.5,-511.5 414.5,-505.5 414.5,-505.5 414.5,-279.5 414.5,-279.5 414.5,-273.5 420.5,-267.5 426.5,-267.5"/>
<text text-anchor="middle" x="532" y="-502.3" font-family="Times,serif" font-size="14.00">ProfileController</text>
<polyline fill="none" stroke="black" points="414.5,-494.5 649.5,-494.5 "/>
<polyline fill="none" stroke="black" points="414.5,-470.5 649.5,-470.5 "/>
<text text-anchor="start" x="422.5" y="-455.3" font-family="Times,serif" font-size="14.00">I + change()</text>
<text text-anchor="start" x="422.5" y="-440.3" font-family="Times,serif" font-size="14.00">I + update()</text>
<text text-anchor="start" x="422.5" y="-425.3" font-family="Times,serif" font-size="14.00">I + destroy()</text>
<text text-anchor="start" x="422.5" y="-410.3" font-family="Times,serif" font-size="14.00">I + cancel_destroy()</text>
<text text-anchor="start" x="422.5" y="-395.3" font-family="Times,serif" font-size="14.00">I + confirm_destroy()</text>
<text text-anchor="start" x="422.5" y="-380.3" font-family="Times,serif" font-size="14.00">I + profile()</text>
<text text-anchor="start" x="422.5" y="-365.3" font-family="Times,serif" font-size="14.00">I + change_password()</text>
<text text-anchor="start" x="422.5" y="-350.3" font-family="Times,serif" font-size="14.00">I + password_update()</text>
<text text-anchor="start" x="422.5" y="-335.3" font-family="Times,serif" font-size="14.00">I + settings()</text>
<text text-anchor="start" x="422.5" y="-320.3" font-family="Times,serif" font-size="14.00">I &#45; check_id()</text>
<text text-anchor="start" x="422.5" y="-305.3" font-family="Times,serif" font-size="14.00">I &#45; get_update_params()</text>
<text text-anchor="start" x="422.5" y="-290.3" font-family="Times,serif" font-size="14.00">I &#45; get_user_id()</text>
<text text-anchor="start" x="422.5" y="-275.3" font-family="Times,serif" font-size="14.00">I &#45; get_change_password_parameters()</text>
</g>
<!-- ProfileController&#45;&gt;ApplicationController -->
<g id="edge4" class="edge">
<title>ProfileController&#45;&gt;ApplicationController</title>
<path fill="none" stroke="black" d="M532,-267.39C532,-247.83 532,-228.28 532,-210.7"/>
<polygon fill="none" stroke="black" points="535.5,-210.59 532,-200.59 528.5,-210.59 535.5,-210.59"/>
</g>
<!-- RequestController -->
<g id="node5" class="node">
<title>RequestController</title>
<path fill="none" stroke="black" d="M680,-260C680,-260 790,-260 790,-260 796,-260 802,-266 802,-272 802,-272 802,-513 802,-513 802,-519 796,-525 790,-525 790,-525 680,-525 680,-525 674,-525 668,-519 668,-513 668,-513 668,-272 668,-272 668,-266 674,-260 680,-260"/>
<text text-anchor="middle" x="735" y="-509.8" font-family="Times,serif" font-size="14.00">RequestController</text>
<polyline fill="none" stroke="black" points="668,-502 802,-502 "/>
<polyline fill="none" stroke="black" points="668,-478 802,-478 "/>
<text text-anchor="start" x="676" y="-462.8" font-family="Times,serif" font-size="14.00">I + send_request()</text>
<text text-anchor="start" x="676" y="-447.8" font-family="Times,serif" font-size="14.00">I + admin()</text>
<text text-anchor="start" x="676" y="-432.8" font-family="Times,serif" font-size="14.00">I + already_read()</text>
<text text-anchor="start" x="676" y="-417.8" font-family="Times,serif" font-size="14.00">I + read()</text>
<text text-anchor="start" x="676" y="-402.8" font-family="Times,serif" font-size="14.00">I + create()</text>
<text text-anchor="start" x="676" y="-387.8" font-family="Times,serif" font-size="14.00">I + add_files()</text>
<text text-anchor="start" x="676" y="-372.8" font-family="Times,serif" font-size="14.00">I + change_request()</text>
<text text-anchor="start" x="676" y="-357.8" font-family="Times,serif" font-size="14.00">I + user_requests()</text>
<text text-anchor="start" x="676" y="-342.8" font-family="Times,serif" font-size="14.00">I + change()</text>
<text text-anchor="start" x="676" y="-327.8" font-family="Times,serif" font-size="14.00">I &#45; check_admin()</text>
<text text-anchor="start" x="676" y="-312.8" font-family="Times,serif" font-size="14.00">I &#45; get_request_id()</text>
<text text-anchor="start" x="676" y="-297.8" font-family="Times,serif" font-size="14.00">I &#45; read_param()</text>
<text text-anchor="start" x="676" y="-282.8" font-family="Times,serif" font-size="14.00">I &#45; check_id()</text>
<text text-anchor="start" x="676" y="-267.8" font-family="Times,serif" font-size="14.00">I &#45; request_params()</text>
</g>
<!-- RequestController&#45;&gt;ApplicationController -->
<g id="edge5" class="edge">
<title>RequestController&#45;&gt;ApplicationController</title>
<path fill="none" stroke="black" d="M667.99,-265.02C664.74,-260.54 661.41,-256.18 658,-252 645.26,-236.35 630.06,-221.18 614.7,-207.4"/>
<polygon fill="none" stroke="black" points="616.97,-204.74 607.16,-200.75 612.34,-209.99 616.97,-204.74"/>
</g>
<!-- StorageController -->
<g id="node6" class="node">
<title>StorageController</title>
<path fill="none" stroke="black" d="M832,-335C832,-335 926,-335 926,-335 932,-335 938,-341 938,-347 938,-347 938,-438 938,-438 938,-444 932,-450 926,-450 926,-450 832,-450 832,-450 826,-450 820,-444 820,-438 820,-438 820,-347 820,-347 820,-341 826,-335 832,-335"/>
<text text-anchor="middle" x="879" y="-434.8" font-family="Times,serif" font-size="14.00">StorageController</text>
<polyline fill="none" stroke="black" points="820,-427 938,-427 "/>
<polyline fill="none" stroke="black" points="820,-403 938,-403 "/>
<text text-anchor="start" x="828" y="-387.8" font-family="Times,serif" font-size="14.00">I + index()</text>
<text text-anchor="start" x="828" y="-372.8" font-family="Times,serif" font-size="14.00">I + change()</text>
<text text-anchor="start" x="828" y="-357.8" font-family="Times,serif" font-size="14.00">I &#45; get_type()</text>
<text text-anchor="start" x="828" y="-342.8" font-family="Times,serif" font-size="14.00">I &#45; check_admin()</text>
</g>
<!-- StorageController&#45;&gt;ApplicationController -->
<g id="edge6" class="edge">
<title>StorageController&#45;&gt;ApplicationController</title>
<path fill="none" stroke="black" d="M862.37,-334.79C851.64,-306.7 835.1,-274.15 811,-252 775.74,-219.6 729.7,-196.52 685.21,-180.27"/>
<polygon fill="none" stroke="black" points="686.33,-176.95 675.74,-176.9 683.99,-183.55 686.33,-176.95"/>
</g>
<!-- Users::ConfirmationsController -->
<g id="node7" class="node">
<title>Users::ConfirmationsController</title>
<path fill="none" stroke="black" d="M968.5,-369C968.5,-369 1141.5,-369 1141.5,-369 1147.5,-369 1153.5,-375 1153.5,-381 1153.5,-381 1153.5,-404 1153.5,-404 1153.5,-410 1147.5,-416 1141.5,-416 1141.5,-416 968.5,-416 968.5,-416 962.5,-416 956.5,-410 956.5,-404 956.5,-404 956.5,-381 956.5,-381 956.5,-375 962.5,-369 968.5,-369"/>
<text text-anchor="middle" x="1055" y="-400.8" font-family="Times,serif" font-size="14.00">Users::ConfirmationsController</text>
<polyline fill="none" stroke="black" points="956.5,-393 1153.5,-393 "/>
</g>
<!-- Devise::ConfirmationsController -->
<g id="node25" class="node">
<title>Devise::ConfirmationsController</title>
<path fill="none" stroke="black" d="M966,-119.5C966,-119.5 1144,-119.5 1144,-119.5 1150,-119.5 1156,-125.5 1156,-131.5 1156,-131.5 1156,-154.5 1156,-154.5 1156,-160.5 1150,-166.5 1144,-166.5 1144,-166.5 966,-166.5 966,-166.5 960,-166.5 954,-160.5 954,-154.5 954,-154.5 954,-131.5 954,-131.5 954,-125.5 960,-119.5 966,-119.5"/>
<text text-anchor="middle" x="1055" y="-151.3" font-family="Times,serif" font-size="14.00">Devise::ConfirmationsController</text>
<polyline fill="none" stroke="black" points="954,-143.5 1156,-143.5 "/>
</g>
<!-- Users::ConfirmationsController&#45;&gt;Devise::ConfirmationsController -->
<g id="edge7" class="edge">
<title>Users::ConfirmationsController&#45;&gt;Devise::ConfirmationsController</title>
<path fill="none" stroke="black" d="M1055,-368.66C1055,-324.64 1055,-227.91 1055,-176.93"/>
<polygon fill="none" stroke="black" points="1058.5,-176.79 1055,-166.79 1051.5,-176.79 1058.5,-176.79"/>
</g>
<!-- Users::OmniauthCallbacksController -->
<g id="node8" class="node">
<title>Users::OmniauthCallbacksController</title>
<path fill="none" stroke="black" d="M1189.5,-369C1189.5,-369 1392.5,-369 1392.5,-369 1398.5,-369 1404.5,-375 1404.5,-381 1404.5,-381 1404.5,-404 1404.5,-404 1404.5,-410 1398.5,-416 1392.5,-416 1392.5,-416 1189.5,-416 1189.5,-416 1183.5,-416 1177.5,-410 1177.5,-404 1177.5,-404 1177.5,-381 1177.5,-381 1177.5,-375 1183.5,-369 1189.5,-369"/>
<text text-anchor="middle" x="1291" y="-400.8" font-family="Times,serif" font-size="14.00">Users::OmniauthCallbacksController</text>
<polyline fill="none" stroke="black" points="1177.5,-393 1404.5,-393 "/>
</g>
<!-- Devise::OmniauthCallbacksController -->
<g id="node26" class="node">
<title>Devise::OmniauthCallbacksController</title>
<path fill="none" stroke="black" d="M1186.5,-119.5C1186.5,-119.5 1395.5,-119.5 1395.5,-119.5 1401.5,-119.5 1407.5,-125.5 1407.5,-131.5 1407.5,-131.5 1407.5,-154.5 1407.5,-154.5 1407.5,-160.5 1401.5,-166.5 1395.5,-166.5 1395.5,-166.5 1186.5,-166.5 1186.5,-166.5 1180.5,-166.5 1174.5,-160.5 1174.5,-154.5 1174.5,-154.5 1174.5,-131.5 1174.5,-131.5 1174.5,-125.5 1180.5,-119.5 1186.5,-119.5"/>
<text text-anchor="middle" x="1291" y="-151.3" font-family="Times,serif" font-size="14.00">Devise::OmniauthCallbacksController</text>
<polyline fill="none" stroke="black" points="1174.5,-143.5 1407.5,-143.5 "/>
</g>
<!-- Users::OmniauthCallbacksController&#45;&gt;Devise::OmniauthCallbacksController -->
<g id="edge8" class="edge">
<title>Users::OmniauthCallbacksController&#45;&gt;Devise::OmniauthCallbacksController</title>
<path fill="none" stroke="black" d="M1291,-368.66C1291,-324.64 1291,-227.91 1291,-176.93"/>
<polygon fill="none" stroke="black" points="1294.5,-176.79 1291,-166.79 1287.5,-176.79 1294.5,-176.79"/>
</g>
<!-- Users::PasswordsController -->
<g id="node9" class="node">
<title>Users::PasswordsController</title>
<path fill="none" stroke="black" d="M1440.5,-369C1440.5,-369 1589.5,-369 1589.5,-369 1595.5,-369 1601.5,-375 1601.5,-381 1601.5,-381 1601.5,-404 1601.5,-404 1601.5,-410 1595.5,-416 1589.5,-416 1589.5,-416 1440.5,-416 1440.5,-416 1434.5,-416 1428.5,-410 1428.5,-404 1428.5,-404 1428.5,-381 1428.5,-381 1428.5,-375 1434.5,-369 1440.5,-369"/>
<text text-anchor="middle" x="1515" y="-400.8" font-family="Times,serif" font-size="14.00">Users::PasswordsController</text>
<polyline fill="none" stroke="black" points="1428.5,-393 1601.5,-393 "/>
</g>
<!-- Devise::PasswordsController -->
<g id="node27" class="node">
<title>Devise::PasswordsController</title>
<path fill="none" stroke="black" d="M1437.5,-119.5C1437.5,-119.5 1592.5,-119.5 1592.5,-119.5 1598.5,-119.5 1604.5,-125.5 1604.5,-131.5 1604.5,-131.5 1604.5,-154.5 1604.5,-154.5 1604.5,-160.5 1598.5,-166.5 1592.5,-166.5 1592.5,-166.5 1437.5,-166.5 1437.5,-166.5 1431.5,-166.5 1425.5,-160.5 1425.5,-154.5 1425.5,-154.5 1425.5,-131.5 1425.5,-131.5 1425.5,-125.5 1431.5,-119.5 1437.5,-119.5"/>
<text text-anchor="middle" x="1515" y="-151.3" font-family="Times,serif" font-size="14.00">Devise::PasswordsController</text>
<polyline fill="none" stroke="black" points="1425.5,-143.5 1604.5,-143.5 "/>
</g>
<!-- Users::PasswordsController&#45;&gt;Devise::PasswordsController -->
<g id="edge9" class="edge">
<title>Users::PasswordsController&#45;&gt;Devise::PasswordsController</title>
<path fill="none" stroke="black" d="M1515,-368.66C1515,-324.64 1515,-227.91 1515,-176.93"/>
<polygon fill="none" stroke="black" points="1518.5,-176.79 1515,-166.79 1511.5,-176.79 1518.5,-176.79"/>
</g>
<!-- Users::RegistrationsController -->
<g id="node10" class="node">
<title>Users::RegistrationsController</title>
<path fill="none" stroke="black" d="M1631.5,-342.5C1631.5,-342.5 1832.5,-342.5 1832.5,-342.5 1838.5,-342.5 1844.5,-348.5 1844.5,-354.5 1844.5,-354.5 1844.5,-430.5 1844.5,-430.5 1844.5,-436.5 1838.5,-442.5 1832.5,-442.5 1832.5,-442.5 1631.5,-442.5 1631.5,-442.5 1625.5,-442.5 1619.5,-436.5 1619.5,-430.5 1619.5,-430.5 1619.5,-354.5 1619.5,-354.5 1619.5,-348.5 1625.5,-342.5 1631.5,-342.5"/>
<text text-anchor="middle" x="1732" y="-427.3" font-family="Times,serif" font-size="14.00">Users::RegistrationsController</text>
<polyline fill="none" stroke="black" points="1619.5,-419.5 1844.5,-419.5 "/>
<polyline fill="none" stroke="black" points="1619.5,-395.5 1844.5,-395.5 "/>
<text text-anchor="start" x="1627.5" y="-380.3" font-family="Times,serif" font-size="14.00">I + create()</text>
<text text-anchor="start" x="1627.5" y="-365.3" font-family="Times,serif" font-size="14.00">I # configure_sign_up_params()</text>
<text text-anchor="start" x="1627.5" y="-350.3" font-family="Times,serif" font-size="14.00">I # after_sign_up_path_for(resource)</text>
</g>
<!-- Devise::RegistrationsController -->
<g id="node28" class="node">
<title>Devise::RegistrationsController</title>
<path fill="none" stroke="black" d="M1647,-119.5C1647,-119.5 1817,-119.5 1817,-119.5 1823,-119.5 1829,-125.5 1829,-131.5 1829,-131.5 1829,-154.5 1829,-154.5 1829,-160.5 1823,-166.5 1817,-166.5 1817,-166.5 1647,-166.5 1647,-166.5 1641,-166.5 1635,-160.5 1635,-154.5 1635,-154.5 1635,-131.5 1635,-131.5 1635,-125.5 1641,-119.5 1647,-119.5"/>
<text text-anchor="middle" x="1732" y="-151.3" font-family="Times,serif" font-size="14.00">Devise::RegistrationsController</text>
<polyline fill="none" stroke="black" points="1635,-143.5 1829,-143.5 "/>
</g>
<!-- Users::RegistrationsController&#45;&gt;Devise::RegistrationsController -->
<g id="edge10" class="edge">
<title>Users::RegistrationsController&#45;&gt;Devise::RegistrationsController</title>
<path fill="none" stroke="black" d="M1732,-342.31C1732,-293.18 1732,-219.07 1732,-176.73"/>
<polygon fill="none" stroke="black" points="1735.5,-176.69 1732,-166.69 1728.5,-176.69 1735.5,-176.69"/>
</g>
<!-- Users::SessionsController -->
<g id="node11" class="node">
<title>Users::SessionsController</title>
<path fill="none" stroke="black" d="M1875,-350C1875,-350 2013,-350 2013,-350 2019,-350 2025,-356 2025,-362 2025,-362 2025,-423 2025,-423 2025,-429 2019,-435 2013,-435 2013,-435 1875,-435 1875,-435 1869,-435 1863,-429 1863,-423 1863,-423 1863,-362 1863,-362 1863,-356 1869,-350 1875,-350"/>
<text text-anchor="middle" x="1944" y="-419.8" font-family="Times,serif" font-size="14.00">Users::SessionsController</text>
<polyline fill="none" stroke="black" points="1863,-412 2025,-412 "/>
<polyline fill="none" stroke="black" points="1863,-388 2025,-388 "/>
<text text-anchor="start" x="1871" y="-372.8" font-family="Times,serif" font-size="14.00">I + create()</text>
<text text-anchor="start" x="1871" y="-357.8" font-family="Times,serif" font-size="14.00">I + destroy()</text>
</g>
<!-- Devise::SessionsController -->
<g id="node29" class="node">
<title>Devise::SessionsController</title>
<path fill="none" stroke="black" d="M1872.5,-119.5C1872.5,-119.5 2015.5,-119.5 2015.5,-119.5 2021.5,-119.5 2027.5,-125.5 2027.5,-131.5 2027.5,-131.5 2027.5,-154.5 2027.5,-154.5 2027.5,-160.5 2021.5,-166.5 2015.5,-166.5 2015.5,-166.5 1872.5,-166.5 1872.5,-166.5 1866.5,-166.5 1860.5,-160.5 1860.5,-154.5 1860.5,-154.5 1860.5,-131.5 1860.5,-131.5 1860.5,-125.5 1866.5,-119.5 1872.5,-119.5"/>
<text text-anchor="middle" x="1944" y="-151.3" font-family="Times,serif" font-size="14.00">Devise::SessionsController</text>
<polyline fill="none" stroke="black" points="1860.5,-143.5 2027.5,-143.5 "/>
</g>
<!-- Users::SessionsController&#45;&gt;Devise::SessionsController -->
<g id="edge11" class="edge">
<title>Users::SessionsController&#45;&gt;Devise::SessionsController</title>
<path fill="none" stroke="black" d="M1944,-349.79C1944,-301.05 1944,-221.39 1944,-176.83"/>
<polygon fill="none" stroke="black" points="1947.5,-176.56 1944,-166.56 1940.5,-176.56 1947.5,-176.56"/>
</g>
<!-- Users::UnlocksController -->
<g id="node12" class="node">
<title>Users::UnlocksController</title>
<path fill="none" stroke="black" d="M2060.5,-369C2060.5,-369 2197.5,-369 2197.5,-369 2203.5,-369 2209.5,-375 2209.5,-381 2209.5,-381 2209.5,-404 2209.5,-404 2209.5,-410 2203.5,-416 2197.5,-416 2197.5,-416 2060.5,-416 2060.5,-416 2054.5,-416 2048.5,-410 2048.5,-404 2048.5,-404 2048.5,-381 2048.5,-381 2048.5,-375 2054.5,-369 2060.5,-369"/>
<text text-anchor="middle" x="2129" y="-400.8" font-family="Times,serif" font-size="14.00">Users::UnlocksController</text>
<polyline fill="none" stroke="black" points="2048.5,-393 2209.5,-393 "/>
</g>
<!-- Devise::UnlocksController -->
<g id="node30" class="node">
<title>Devise::UnlocksController</title>
<path fill="none" stroke="black" d="M2058,-119.5C2058,-119.5 2200,-119.5 2200,-119.5 2206,-119.5 2212,-125.5 2212,-131.5 2212,-131.5 2212,-154.5 2212,-154.5 2212,-160.5 2206,-166.5 2200,-166.5 2200,-166.5 2058,-166.5 2058,-166.5 2052,-166.5 2046,-160.5 2046,-154.5 2046,-154.5 2046,-131.5 2046,-131.5 2046,-125.5 2052,-119.5 2058,-119.5"/>
<text text-anchor="middle" x="2129" y="-151.3" font-family="Times,serif" font-size="14.00">Devise::UnlocksController</text>
<polyline fill="none" stroke="black" points="2046,-143.5 2212,-143.5 "/>
</g>
<!-- Users::UnlocksController&#45;&gt;Devise::UnlocksController -->
<g id="edge12" class="edge">
<title>Users::UnlocksController&#45;&gt;Devise::UnlocksController</title>
<path fill="none" stroke="black" d="M2129,-368.66C2129,-324.64 2129,-227.91 2129,-176.93"/>
<polygon fill="none" stroke="black" points="2132.5,-176.79 2129,-166.79 2125.5,-176.79 2132.5,-176.79"/>
</g>
<!-- ApplicationJob -->
<g id="node13" class="node">
<title>ApplicationJob</title>
<path fill="none" stroke="black" d="M2364.5,-119.5C2364.5,-119.5 2441.5,-119.5 2441.5,-119.5 2447.5,-119.5 2453.5,-125.5 2453.5,-131.5 2453.5,-131.5 2453.5,-154.5 2453.5,-154.5 2453.5,-160.5 2447.5,-166.5 2441.5,-166.5 2441.5,-166.5 2364.5,-166.5 2364.5,-166.5 2358.5,-166.5 2352.5,-160.5 2352.5,-154.5 2352.5,-154.5 2352.5,-131.5 2352.5,-131.5 2352.5,-125.5 2358.5,-119.5 2364.5,-119.5"/>
<text text-anchor="middle" x="2403" y="-151.3" font-family="Times,serif" font-size="14.00">ApplicationJob</text>
<polyline fill="none" stroke="black" points="2352.5,-143.5 2453.5,-143.5 "/>
</g>
<!-- ActiveJob::Base -->
<g id="node31" class="node">
<title>ActiveJob::Base</title>
<path fill="none" stroke="black" d="M2361.5,-0.5C2361.5,-0.5 2444.5,-0.5 2444.5,-0.5 2450.5,-0.5 2456.5,-6.5 2456.5,-12.5 2456.5,-12.5 2456.5,-35.5 2456.5,-35.5 2456.5,-41.5 2450.5,-47.5 2444.5,-47.5 2444.5,-47.5 2361.5,-47.5 2361.5,-47.5 2355.5,-47.5 2349.5,-41.5 2349.5,-35.5 2349.5,-35.5 2349.5,-12.5 2349.5,-12.5 2349.5,-6.5 2355.5,-0.5 2361.5,-0.5"/>
<text text-anchor="middle" x="2403" y="-32.3" font-family="Times,serif" font-size="14.00">ActiveJob::Base</text>
<polyline fill="none" stroke="black" points="2349.5,-24.5 2456.5,-24.5 "/>
</g>
<!-- ApplicationJob&#45;&gt;ActiveJob::Base -->
<g id="edge13" class="edge">
<title>ApplicationJob&#45;&gt;ActiveJob::Base</title>
<path fill="none" stroke="black" d="M2403,-119.44C2403,-101.99 2403,-77.58 2403,-57.94"/>
<polygon fill="none" stroke="black" points="2406.5,-57.89 2403,-47.89 2399.5,-57.89 2406.5,-57.89"/>
</g>
<!-- CheckConfirmationJob -->
<g id="node14" class="node">
<title>CheckConfirmationJob</title>
<path fill="none" stroke="black" d="M2239.5,-357.5C2239.5,-357.5 2364.5,-357.5 2364.5,-357.5 2370.5,-357.5 2376.5,-363.5 2376.5,-369.5 2376.5,-369.5 2376.5,-415.5 2376.5,-415.5 2376.5,-421.5 2370.5,-427.5 2364.5,-427.5 2364.5,-427.5 2239.5,-427.5 2239.5,-427.5 2233.5,-427.5 2227.5,-421.5 2227.5,-415.5 2227.5,-415.5 2227.5,-369.5 2227.5,-369.5 2227.5,-363.5 2233.5,-357.5 2239.5,-357.5"/>
<text text-anchor="middle" x="2302" y="-412.3" font-family="Times,serif" font-size="14.00">CheckConfirmationJob</text>
<polyline fill="none" stroke="black" points="2227.5,-404.5 2376.5,-404.5 "/>
<polyline fill="none" stroke="black" points="2227.5,-380.5 2376.5,-380.5 "/>
<text text-anchor="start" x="2235.5" y="-365.3" font-family="Times,serif" font-size="14.00">I + perform(admin)</text>
</g>
<!-- CheckConfirmationJob&#45;&gt;ApplicationJob -->
<g id="edge14" class="edge">
<title>CheckConfirmationJob&#45;&gt;ApplicationJob</title>
<path fill="none" stroke="black" d="M2315.94,-357.35C2335.49,-309.43 2370.8,-222.9 2389.89,-176.12"/>
<polygon fill="none" stroke="black" points="2393.17,-177.34 2393.71,-166.76 2386.69,-174.7 2393.17,-177.34"/>
</g>
<!-- MailerJob -->
<g id="node15" class="node">
<title>MailerJob</title>
<path fill="none" stroke="black" d="M2406.5,-357.5C2406.5,-357.5 2601.5,-357.5 2601.5,-357.5 2607.5,-357.5 2613.5,-363.5 2613.5,-369.5 2613.5,-369.5 2613.5,-415.5 2613.5,-415.5 2613.5,-421.5 2607.5,-427.5 2601.5,-427.5 2601.5,-427.5 2406.5,-427.5 2406.5,-427.5 2400.5,-427.5 2394.5,-421.5 2394.5,-415.5 2394.5,-415.5 2394.5,-369.5 2394.5,-369.5 2394.5,-363.5 2400.5,-357.5 2406.5,-357.5"/>
<text text-anchor="middle" x="2504" y="-412.3" font-family="Times,serif" font-size="14.00">MailerJob</text>
<polyline fill="none" stroke="black" points="2394.5,-404.5 2613.5,-404.5 "/>
<polyline fill="none" stroke="black" points="2394.5,-380.5 2613.5,-380.5 "/>
<text text-anchor="start" x="2402.5" y="-365.3" font-family="Times,serif" font-size="14.00">I + perform(admin, user, password)</text>
</g>
<!-- MailerJob&#45;&gt;ApplicationJob -->
<g id="edge15" class="edge">
<title>MailerJob&#45;&gt;ApplicationJob</title>
<path fill="none" stroke="black" d="M2490.06,-357.35C2470.51,-309.43 2435.2,-222.9 2416.11,-176.12"/>
<polygon fill="none" stroke="black" points="2419.31,-174.7 2412.29,-166.76 2412.83,-177.34 2419.31,-174.7"/>
</g>
<!-- AdminMailer -->
<g id="node16" class="node">
<title>AdminMailer</title>
<path fill="none" stroke="black" d="M2643.5,-357.5C2643.5,-357.5 2768.5,-357.5 2768.5,-357.5 2774.5,-357.5 2780.5,-363.5 2780.5,-369.5 2780.5,-369.5 2780.5,-415.5 2780.5,-415.5 2780.5,-421.5 2774.5,-427.5 2768.5,-427.5 2768.5,-427.5 2643.5,-427.5 2643.5,-427.5 2637.5,-427.5 2631.5,-421.5 2631.5,-415.5 2631.5,-415.5 2631.5,-369.5 2631.5,-369.5 2631.5,-363.5 2637.5,-357.5 2643.5,-357.5"/>
<text text-anchor="middle" x="2706" y="-412.3" font-family="Times,serif" font-size="14.00">AdminMailer</text>
<polyline fill="none" stroke="black" points="2631.5,-404.5 2780.5,-404.5 "/>
<polyline fill="none" stroke="black" points="2631.5,-380.5 2780.5,-380.5 "/>
<text text-anchor="start" x="2639.5" y="-365.3" font-family="Times,serif" font-size="14.00">I + send_deleted_user()</text>
</g>
<!-- ApplicationMailer -->
<g id="node17" class="node">
<title>ApplicationMailer</title>
<path fill="none" stroke="black" d="M2757.5,-119.5C2757.5,-119.5 2852.5,-119.5 2852.5,-119.5 2858.5,-119.5 2864.5,-125.5 2864.5,-131.5 2864.5,-131.5 2864.5,-154.5 2864.5,-154.5 2864.5,-160.5 2858.5,-166.5 2852.5,-166.5 2852.5,-166.5 2757.5,-166.5 2757.5,-166.5 2751.5,-166.5 2745.5,-160.5 2745.5,-154.5 2745.5,-154.5 2745.5,-131.5 2745.5,-131.5 2745.5,-125.5 2751.5,-119.5 2757.5,-119.5"/>
<text text-anchor="middle" x="2805" y="-151.3" font-family="Times,serif" font-size="14.00">ApplicationMailer</text>
<polyline fill="none" stroke="black" points="2745.5,-143.5 2864.5,-143.5 "/>
</g>
<!-- AdminMailer&#45;&gt;ApplicationMailer -->
<g id="edge16" class="edge">
<title>AdminMailer&#45;&gt;ApplicationMailer</title>
<path fill="none" stroke="black" d="M2719.66,-357.35C2738.83,-309.43 2773.44,-222.9 2792.15,-176.12"/>
<polygon fill="none" stroke="black" points="2795.43,-177.35 2795.89,-166.76 2788.93,-174.75 2795.43,-177.35"/>
</g>
<!-- ActionMailer::Base -->
<g id="node32" class="node">
<title>ActionMailer::Base</title>
<path fill="none" stroke="black" d="M2753,-0.5C2753,-0.5 2857,-0.5 2857,-0.5 2863,-0.5 2869,-6.5 2869,-12.5 2869,-12.5 2869,-35.5 2869,-35.5 2869,-41.5 2863,-47.5 2857,-47.5 2857,-47.5 2753,-47.5 2753,-47.5 2747,-47.5 2741,-41.5 2741,-35.5 2741,-35.5 2741,-12.5 2741,-12.5 2741,-6.5 2747,-0.5 2753,-0.5"/>
<text text-anchor="middle" x="2805" y="-32.3" font-family="Times,serif" font-size="14.00">ActionMailer::Base</text>
<polyline fill="none" stroke="black" points="2741,-24.5 2869,-24.5 "/>
</g>
<!-- ApplicationMailer&#45;&gt;ActionMailer::Base -->
<g id="edge17" class="edge">
<title>ApplicationMailer&#45;&gt;ActionMailer::Base</title>
<path fill="none" stroke="black" d="M2805,-119.44C2805,-101.99 2805,-77.58 2805,-57.94"/>
<polygon fill="none" stroke="black" points="2808.5,-57.89 2805,-47.89 2801.5,-57.89 2808.5,-57.89"/>
</g>
<!-- SendInstructionsMailer -->
<g id="node18" class="node">
<title>SendInstructionsMailer</title>
<path fill="none" stroke="black" d="M2810,-350C2810,-350 2998,-350 2998,-350 3004,-350 3010,-356 3010,-362 3010,-362 3010,-423 3010,-423 3010,-429 3004,-435 2998,-435 2998,-435 2810,-435 2810,-435 2804,-435 2798,-429 2798,-423 2798,-423 2798,-362 2798,-362 2798,-356 2804,-350 2810,-350"/>
<text text-anchor="middle" x="2904" y="-419.8" font-family="Times,serif" font-size="14.00">SendInstructionsMailer</text>
<polyline fill="none" stroke="black" points="2798,-412 3010,-412 "/>
<polyline fill="none" stroke="black" points="2798,-388 3010,-388 "/>
<text text-anchor="start" x="2806" y="-372.8" font-family="Times,serif" font-size="14.00">I + send_mail_for_sign_in()</text>
<text text-anchor="start" x="2806" y="-357.8" font-family="Times,serif" font-size="14.00">I + fail_send_bad_email_address()</text>
</g>
<!-- SendInstructionsMailer&#45;&gt;ApplicationMailer -->
<g id="edge18" class="edge">
<title>SendInstructionsMailer&#45;&gt;ApplicationMailer</title>
<path fill="none" stroke="black" d="M2887.32,-349.79C2867.7,-300.74 2835.55,-220.38 2817.79,-175.99"/>
<polygon fill="none" stroke="black" points="2820.99,-174.55 2814.02,-166.56 2814.49,-177.15 2820.99,-174.55"/>
</g>
<!-- ApplicationRecord -->
<g id="node19" class="node">
<title>ApplicationRecord</title>
<path fill="none" stroke="black" d="M3234.5,-119.5C3234.5,-119.5 3331.5,-119.5 3331.5,-119.5 3337.5,-119.5 3343.5,-125.5 3343.5,-131.5 3343.5,-131.5 3343.5,-154.5 3343.5,-154.5 3343.5,-160.5 3337.5,-166.5 3331.5,-166.5 3331.5,-166.5 3234.5,-166.5 3234.5,-166.5 3228.5,-166.5 3222.5,-160.5 3222.5,-154.5 3222.5,-154.5 3222.5,-131.5 3222.5,-131.5 3222.5,-125.5 3228.5,-119.5 3234.5,-119.5"/>
<text text-anchor="middle" x="3283" y="-151.3" font-family="Times,serif" font-size="14.00">ApplicationRecord</text>
<polyline fill="none" stroke="black" points="3222.5,-143.5 3343.5,-143.5 "/>
</g>
<!-- ActiveRecord::Base -->
<g id="node33" class="node">
<title>ActiveRecord::Base</title>
<path fill="none" stroke="black" d="M3231.5,-0.5C3231.5,-0.5 3334.5,-0.5 3334.5,-0.5 3340.5,-0.5 3346.5,-6.5 3346.5,-12.5 3346.5,-12.5 3346.5,-35.5 3346.5,-35.5 3346.5,-41.5 3340.5,-47.5 3334.5,-47.5 3334.5,-47.5 3231.5,-47.5 3231.5,-47.5 3225.5,-47.5 3219.5,-41.5 3219.5,-35.5 3219.5,-35.5 3219.5,-12.5 3219.5,-12.5 3219.5,-6.5 3225.5,-0.5 3231.5,-0.5"/>
<text text-anchor="middle" x="3283" y="-32.3" font-family="Times,serif" font-size="14.00">ActiveRecord::Base</text>
<polyline fill="none" stroke="black" points="3219.5,-24.5 3346.5,-24.5 "/>
</g>
<!-- ApplicationRecord&#45;&gt;ActiveRecord::Base -->
<g id="edge19" class="edge">
<title>ApplicationRecord&#45;&gt;ActiveRecord::Base</title>
<path fill="none" stroke="black" d="M3283,-119.44C3283,-101.99 3283,-77.58 3283,-57.94"/>
<polygon fill="none" stroke="black" points="3286.5,-57.89 3283,-47.89 3279.5,-57.89 3286.5,-57.89"/>
</g>
<!-- Request -->
<g id="node20" class="node">
<title>Request</title>
<path fill="none" stroke="black" d="M3040,-350C3040,-350 3222,-350 3222,-350 3228,-350 3234,-356 3234,-362 3234,-362 3234,-423 3234,-423 3234,-429 3228,-435 3222,-435 3222,-435 3040,-435 3040,-435 3034,-435 3028,-429 3028,-423 3028,-423 3028,-362 3028,-362 3028,-356 3034,-350 3040,-350"/>
<text text-anchor="middle" x="3131" y="-419.8" font-family="Times,serif" font-size="14.00">Request</text>
<polyline fill="none" stroke="black" points="3028,-412 3234,-412 "/>
<polyline fill="none" stroke="black" points="3028,-388 3234,-388 "/>
<text text-anchor="start" x="3036" y="-372.8" font-family="Times,serif" font-size="14.00">I + parse(links_of_request)</text>
<text text-anchor="start" x="3036" y="-357.8" font-family="Times,serif" font-size="14.00">I &#45; check_string(links_of_request)</text>
</g>
<!-- Request&#45;&gt;ApplicationRecord -->
<g id="edge20" class="edge">
<title>Request&#45;&gt;ApplicationRecord</title>
<path fill="none" stroke="black" d="M3156.61,-349.79C3186.93,-300.43 3236.71,-219.37 3263.87,-175.15"/>
<polygon fill="none" stroke="black" points="3266.89,-176.91 3269.14,-166.56 3260.93,-173.25 3266.89,-176.91"/>
</g>
<!-- Teacher -->
<g id="node21" class="node">
<title>Teacher</title>
<path fill="none" stroke="black" d="M3264,-369C3264,-369 3302,-369 3302,-369 3308,-369 3314,-375 3314,-381 3314,-381 3314,-404 3314,-404 3314,-410 3308,-416 3302,-416 3302,-416 3264,-416 3264,-416 3258,-416 3252,-410 3252,-404 3252,-404 3252,-381 3252,-381 3252,-375 3258,-369 3264,-369"/>
<text text-anchor="middle" x="3283" y="-400.8" font-family="Times,serif" font-size="14.00">Teacher</text>
<polyline fill="none" stroke="black" points="3252,-393 3314,-393 "/>
</g>
<!-- Teacher&#45;&gt;ApplicationRecord -->
<g id="edge21" class="edge">
<title>Teacher&#45;&gt;ApplicationRecord</title>
<path fill="none" stroke="black" d="M3283,-368.66C3283,-324.64 3283,-227.91 3283,-176.93"/>
<polygon fill="none" stroke="black" points="3286.5,-176.79 3283,-166.79 3279.5,-176.79 3286.5,-176.79"/>
</g>
<!-- User -->
<g id="node22" class="node">
<title>User</title>
<path fill="none" stroke="black" d="M3344,-342.5C3344,-342.5 3602,-342.5 3602,-342.5 3608,-342.5 3614,-348.5 3614,-354.5 3614,-354.5 3614,-430.5 3614,-430.5 3614,-436.5 3608,-442.5 3602,-442.5 3602,-442.5 3344,-442.5 3344,-442.5 3338,-442.5 3332,-436.5 3332,-430.5 3332,-430.5 3332,-354.5 3332,-354.5 3332,-348.5 3338,-342.5 3344,-342.5"/>
<text text-anchor="middle" x="3473" y="-427.3" font-family="Times,serif" font-size="14.00">User</text>
<polyline fill="none" stroke="black" points="3332,-419.5 3614,-419.5 "/>
<polyline fill="none" stroke="black" points="3332,-395.5 3614,-395.5 "/>
<text text-anchor="start" x="3340" y="-380.3" font-family="Times,serif" font-size="14.00">I + change_password(user_params)</text>
<text text-anchor="start" x="3340" y="-365.3" font-family="Times,serif" font-size="14.00">I + generate_password(set =)</text>
<text text-anchor="start" x="3340" y="-350.3" font-family="Times,serif" font-size="14.00">I + create_user_without_confirmation(params)</text>
</g>
<!-- User&#45;&gt;ApplicationRecord -->
<g id="edge22" class="edge">
<title>User&#45;&gt;ApplicationRecord</title>
<path fill="none" stroke="black" d="M3435.23,-342.31C3396.96,-292.45 3338.93,-216.86 3306.7,-174.87"/>
<polygon fill="none" stroke="black" points="3309.28,-172.49 3300.42,-166.69 3303.73,-176.75 3309.28,-172.49"/>
</g>
<!-- DeleteUsersWithoutConfirmationScheduler -->
<g id="node23" class="node">
<title>DeleteUsersWithoutConfirmationScheduler</title>
<path fill="none" stroke="black" d="M3644,-357.5C3644,-357.5 3882,-357.5 3882,-357.5 3888,-357.5 3894,-363.5 3894,-369.5 3894,-369.5 3894,-415.5 3894,-415.5 3894,-421.5 3888,-427.5 3882,-427.5 3882,-427.5 3644,-427.5 3644,-427.5 3638,-427.5 3632,-421.5 3632,-415.5 3632,-415.5 3632,-369.5 3632,-369.5 3632,-363.5 3638,-357.5 3644,-357.5"/>
<text text-anchor="middle" x="3763" y="-412.3" font-family="Times,serif" font-size="14.00">DeleteUsersWithoutConfirmationScheduler</text>
<polyline fill="none" stroke="black" points="3632,-404.5 3894,-404.5 "/>
<polyline fill="none" stroke="black" points="3632,-380.5 3894,-380.5 "/>
<text text-anchor="start" x="3640" y="-365.3" font-family="Times,serif" font-size="14.00">I + perform()</text>
</g>
<!-- Sidekiq::Worker -->
<g id="node34" class="node">
<title>Sidekiq::Worker</title>
<ellipse fill="none" stroke="black" cx="3763" cy="-143" rx="71.49" ry="18"/>
<text text-anchor="middle" x="3763" y="-139.3" font-family="Times,serif" font-size="14.00">Sidekiq::Worker</text>
</g>
<!-- DeleteUsersWithoutConfirmationScheduler&#45;&gt;Sidekiq::Worker -->
<g id="edge23" class="edge">
<title>DeleteUsersWithoutConfirmationScheduler&#45;&gt;Sidekiq::Worker</title>
<path fill="none" stroke="black" d="M3763,-357.35C3763,-307.73 3763,-216.7 3763,-171.28"/>
<polygon fill="none" stroke="black" points="3766.5,-171.02 3763,-161.02 3759.5,-171.02 3766.5,-171.02"/>
<text text-anchor="middle" x="3786.5" y="-222.8" font-family="Times,serif" font-size="14.00">includes</text>
</g>
</g>
</svg>
